<svg width="46" height="46" viewBox="0 0 46 46" fill="none" xmlns="http://www.w3.org/2000/svg">
<path fill-rule="evenodd" clip-rule="evenodd" d="M26.1205 22.7029L41.0836 37.6659L41.0838 26.5834H45.9166V45.9166H26.5834V41.0838H37.6661L22.7028 26.1205L26.1205 22.7029ZM19.3334 0C30.0108 0 38.6666 4.32791 38.6666 9.66663V21.75H33.8334V16.0607L33.8766 16.0359L33.798 16.0807C30.2563 18.076 25.0885 19.3334 19.3334 19.3334C13.5217 19.3334 8.30895 18.0511 4.76495 16.0218L4.83246 16.0602L4.83167 21.75H4.83337C4.83337 22.1826 5.68989 23.1952 7.82411 24.2624C10.0241 25.3623 12.9417 26.1315 16.1838 26.4369L21.1223 31.3759C20.5332 31.4028 19.9365 31.4166 19.3334 31.4166C13.5576 31.4166 8.37341 30.1504 4.83077 28.1427L4.8302 33.6595L4.8336 33.8403C4.96636 35.6834 11.1389 38.6666 19.3334 38.6666C20.1524 38.6666 20.9598 38.6375 21.7501 38.5809V43.4252C20.9455 43.4751 20.1395 43.5001 19.3334 43.5C8.89314 43.5 0.385723 39.3623 0.0128007 34.1877L0 33.8334V9.66663C0 4.32791 8.65582 0 19.3334 0ZM19.3334 4.83337C14.852 4.83337 10.7175 5.70768 7.82411 7.15439C5.68989 8.2215 4.83337 9.23401 4.83337 9.66663C4.83337 10.0994 5.68989 11.1119 7.82411 12.179C10.7175 13.6256 14.8519 14.5 19.3334 14.5C23.8148 14.5 27.9492 13.6257 30.8425 12.1789C32.9767 11.1118 33.8334 10.0992 33.8334 9.66663C33.8334 9.23401 32.9767 8.2215 30.8425 7.15439C27.9492 5.70768 23.8148 4.83337 19.3334 4.83337Z" fill="#14AE5C"/>
</svg>
