<svg width="83" height="83" viewBox="0 0 83 83" fill="none" xmlns="http://www.w3.org/2000/svg">
<g clip-path="url(#clip0_231_1113)">
<path d="M41.5 27.6665H20.75C20.0621 27.6665 19.4024 27.9398 18.9159 28.4262C18.4295 28.9126 18.1563 29.5723 18.1562 30.2603C18.1563 30.9482 18.4295 31.6079 18.9159 32.0943C19.4024 32.5807 20.0621 32.854 20.75 32.854H41.5C42.1879 32.854 42.8476 32.5807 43.3341 32.0943C43.8205 31.6079 44.0938 30.9482 44.0938 30.2603C44.0938 29.5723 43.8205 28.9126 43.3341 28.4262C42.8476 27.9398 42.1879 27.6665 41.5 27.6665ZM41.5 39.9436H20.75C20.4094 39.9436 20.0721 40.0107 19.7574 40.141C19.4427 40.2714 19.1568 40.4624 18.9159 40.7033C18.6751 40.9441 18.484 41.2301 18.3537 41.5448C18.2233 41.8594 18.1562 42.1967 18.1562 42.5373C18.1562 42.878 18.2233 43.2152 18.3537 43.5299C18.484 43.8446 18.6751 44.1305 18.9159 44.3714C19.1568 44.6122 19.4427 44.8033 19.7574 44.9336C20.0721 45.064 20.4094 45.1311 20.75 45.1311H41.5C41.8406 45.1311 42.1779 45.064 42.4926 44.9336C42.8073 44.8033 43.0932 44.6122 43.3341 44.3714C43.5749 44.1305 43.766 43.8446 43.8963 43.5299C44.0267 43.2152 44.0938 42.878 44.0938 42.5373C44.0938 42.1967 44.0267 41.8594 43.8963 41.5448C43.766 41.2301 43.5749 40.9441 43.3341 40.7033C43.0932 40.4624 42.8073 40.2714 42.4926 40.141C42.1779 40.0107 41.8406 39.9436 41.5 39.9436ZM32.8888 52.2207H20.75C20.0621 52.2207 19.4024 52.4939 18.9159 52.9804C18.4295 53.4668 18.1562 54.1265 18.1562 54.8144C18.1562 55.5023 18.4295 56.1621 18.9159 56.6485C19.4024 57.1349 20.0621 57.4082 20.75 57.4082H32.8888C33.5767 57.4082 34.2364 57.1349 34.7228 56.6485C35.2092 56.1621 35.4825 55.5023 35.4825 54.8144C35.4825 54.1265 35.2092 53.4668 34.7228 52.9804C34.2364 52.4939 33.5767 52.2207 32.8888 52.2207Z" fill="white" fill-opacity="0.5"/>
<path d="M29.6725 72.6247H12.1042C11.6456 72.6247 11.2057 72.4425 10.8815 72.1182C10.5572 71.794 10.375 71.3541 10.375 70.8955V19.0205C10.375 18.5619 10.5572 18.1221 10.8815 17.7978C11.2057 17.4736 11.6456 17.2914 12.1042 17.2914H57.0625C57.5211 17.2914 57.9609 17.4736 58.2852 17.7978C58.6095 18.1221 58.7917 18.5619 58.7917 19.0205V23.0322H65.2588C66.6389 23.0928 67.9822 23.497 69.1667 24.208V12.1039C69.1667 10.7281 68.6201 9.40861 67.6473 8.43577C66.6744 7.46292 65.355 6.91638 63.9792 6.91638H46.6875C46.5425 6.90844 46.4014 6.8668 46.2753 6.79475C46.1492 6.72271 46.0417 6.62226 45.9613 6.50138C44.7936 4.52239 43.1299 2.88218 41.1346 1.74271C39.1392 0.603232 36.8811 0.00390625 34.5833 0.00390625C32.2855 0.00390625 30.0275 0.603232 28.0321 1.74271C26.0367 2.88218 24.3731 4.52239 23.2054 6.50138C23.125 6.62226 23.0174 6.72271 22.8914 6.79475C22.7653 6.8668 22.6242 6.90844 22.4792 6.91638H5.1875C3.81169 6.91638 2.49223 7.46292 1.51938 8.43577C0.546539 9.40861 0 10.7281 0 12.1039L0 77.8122C0 79.188 0.546539 80.5075 1.51938 81.4803C2.49223 82.4532 3.81169 82.9997 5.1875 82.9997H33.8571C31.4563 80.3474 29.987 76.9838 29.6725 73.4201C29.6572 73.1552 29.6572 72.8896 29.6725 72.6247Z" fill="white" fill-opacity="0.5"/>
<path d="M80.0605 64.982L67.8526 51.8749V31.6782C67.8436 30.9931 67.5675 30.3386 67.083 29.8541C66.5985 29.3696 65.944 29.0934 65.2588 29.0845H52.9818C52.2938 29.0845 51.6341 29.3577 51.1477 29.8442C50.6613 30.3306 50.388 30.9903 50.388 31.6782V51.8749L38.0418 64.982C37.6082 65.5168 37.2151 66.0832 36.8659 66.6766C36.8589 66.8033 36.8589 66.9303 36.8659 67.057C36.5865 67.5646 36.3549 68.0972 36.1743 68.6478C36.1955 68.7035 36.1955 68.765 36.1743 68.8207C35.4258 71.3868 35.6728 74.1408 36.8659 76.5328V76.7403C37.1174 77.2234 37.4064 77.6859 37.7305 78.1236L38.0072 78.5386C38.4216 79.022 38.8725 79.473 39.3559 79.8874V80.0949C41.3033 81.7012 43.7482 82.5814 46.2726 82.5849H71.4147C74.2644 82.636 77.0206 81.5683 79.0922 79.6107C80.1405 78.6468 80.9862 77.4836 81.58 76.1891C82.1738 74.8947 82.5037 73.4949 82.5505 72.0716C82.5505 72.0716 82.5505 71.7949 82.5505 71.622C82.4978 69.1903 81.6197 66.8488 80.0605 64.982ZM55.5755 53.0507V34.272H62.6651V53.0507C62.6631 53.7155 62.9098 54.357 63.3568 54.8491L72.0718 64.0828H46.1688L54.8493 54.8491C55.3059 54.3604 55.5647 53.7195 55.5755 53.0507Z" fill="white" fill-opacity="0.5"/>
</g>
<defs>
<clipPath id="clip0_231_1113">
<rect width="83" height="83" fill="white"/>
</clipPath>
</defs>
</svg>
