<svg width="46" height="46" viewBox="0 0 46 46" fill="none" xmlns="http://www.w3.org/2000/svg">
<path fill-rule="evenodd" clip-rule="evenodd" d="M42.399 23.4625V28.1545H31.4726L46 42.6819L42.6819 46L28.1547 31.4729L28.1554 42.3984H23.4634L23.4625 23.4625H42.399ZM18.7702 0C29.1364 0 37.5401 4.20182 37.5401 9.38499V18.77H32.8476V15.5927L32.8896 15.5687L32.8133 15.6122C29.3748 17.5493 24.3575 18.7701 18.7701 18.7701C13.1277 18.7701 8.06687 17.5252 4.62612 15.555L4.69167 15.5923L4.6909 21.1163H4.69255C4.69255 21.5363 5.52411 22.5194 7.59615 23.5555C10.4053 24.9599 14.4191 25.8089 18.7701 25.8089V30.5013C13.1626 30.5013 8.12945 29.2719 4.69002 27.3227L4.68947 32.6788L4.69277 32.8543C4.82167 34.6437 10.8144 37.5401 18.7701 37.5401V42.2326C8.63404 42.2326 0.374484 38.2155 0.0124277 33.1916L0 32.8476V9.38499C0 4.20182 8.40363 0 18.7701 0M18.7701 4.69255C14.4192 4.69255 10.4053 5.54138 7.59615 6.94594C5.52411 7.98196 4.69255 8.96497 4.69255 9.38499C4.69255 9.80511 5.52411 10.7881 7.59615 11.8241C10.4053 13.2286 14.4191 14.0775 18.7701 14.0775C23.1209 14.0775 27.1349 13.2287 29.9439 11.824C32.0159 10.788 32.8476 9.805 32.8476 9.38499C32.8476 8.96497 32.0159 7.98196 29.9439 6.94594C27.1349 5.54138 23.1209 4.69255 18.7701 4.69255Z" fill="#CC3334"/>
</svg>
