<svg width="92" height="95" viewBox="0 0 92 95" fill="none" xmlns="http://www.w3.org/2000/svg">
<path fill-rule="evenodd" clip-rule="evenodd" d="M58.6136 0.0206943C48.3564 -0.481746 41.1868 8.23707 43.2759 18.3091L43.4308 19.0416C43.7804 20.6608 45.0887 22.1407 47.0585 22.2378C57.3157 22.7403 64.4854 14.0193 62.3962 3.94944L62.2413 3.21478C61.8896 1.59768 60.5813 0.117805 58.6136 0.0206943ZM87.5976 8.95695C88.4957 9.24072 89.3191 9.72444 90.0069 10.3723C90.6946 11.0202 91.2292 11.8157 91.5711 12.7C91.9129 13.5843 92.0533 14.5348 91.9819 15.4812C91.9105 16.4276 91.629 17.3457 91.1584 18.1676L90.5932 19.1535C86.595 26.137 77.9621 29.5295 70.3299 27.1208L69.2539 26.7809C68.356 26.4969 67.5329 26.013 66.8453 25.365C66.1578 24.717 65.6235 23.9215 65.2818 23.0372C64.9402 22.1529 64.8 21.2025 64.8715 20.2562C64.9431 19.31 65.2246 18.392 65.6953 17.5702L66.2584 16.5843C70.2566 9.60083 78.8895 6.20831 86.5217 8.61706L87.5976 8.95695ZM58.2787 35.6348C65.4901 29.4747 76.4173 31.2226 81.5919 39.1435L81.9687 39.724C82.8584 41.1131 82.9107 43.1334 81.3491 44.4655C74.1376 50.6257 63.2126 48.8777 58.0359 40.9569L57.659 40.3763C56.7673 38.9872 56.7171 36.9669 58.2787 35.6348ZM39.4179 50.0874C47.1569 43.2369 58.7957 44.5584 64.14 53.1273L64.5251 53.748C65.4462 55.2553 65.3436 57.2841 63.8301 58.6246C56.0912 65.4772 44.4523 64.1557 39.1081 55.5846L38.7229 54.964C37.8019 53.4567 37.9044 51.4279 39.4179 50.0874ZM34.5174 12.8498C33.1484 11.3361 31.1221 11.2559 29.6086 12.0434L28.9053 12.4128C19.3304 17.4942 17.1094 29.2847 24.4423 37.3997C25.8113 38.9133 27.8398 38.9936 29.3511 38.2061L30.0566 37.8346C39.6314 32.7553 41.8524 20.9627 34.5174 12.8498ZM11.6605 29.4071C21.3275 34.8368 22.9644 46.9249 15.3615 54.9429L14.8005 55.5319C13.601 56.7753 11.6354 57.3537 9.84563 56.3468C0.178702 50.9149 -1.45827 38.8289 6.14465 30.811L6.70566 30.2241C7.90304 28.9785 9.87075 28.4001 11.6605 29.4071ZM49.9368 70.204C43.9604 60.8919 31.9196 59.7055 24.4465 67.9345C23.0628 69.4587 23.1654 71.5213 24.0886 72.9843C24.2211 73.1954 24.367 73.4241 24.5261 73.6704C30.5046 82.9845 42.5432 84.1709 50.0184 75.9419C51.4 74.4177 51.2975 72.3531 50.3743 70.8922C50.2417 70.6811 50.0959 70.4502 49.9368 70.204ZM58.758 31.0179C59.2229 30.7218 59.6254 30.3363 59.9425 29.8833C60.2596 29.4304 60.4851 28.9189 60.6062 28.378C60.7273 27.8371 60.7416 27.2775 60.6483 26.7311C60.5549 26.1847 60.3558 25.6622 60.0622 25.1934C59.7686 24.7246 59.3863 24.3187 58.9372 23.9989C58.488 23.6791 57.9808 23.4516 57.4445 23.3295C56.9082 23.2073 56.3533 23.1929 55.8115 23.2871C55.2697 23.3812 54.7516 23.5821 54.2867 23.8781C42.5879 31.3442 32.074 40.5489 23.1005 51.1809C14.7189 61.0883 9.02296 70.5861 5.41618 77.6245C3.98887 80.3967 2.67731 83.2281 1.48493 86.111C1.03699 87.2112 0.618871 88.3234 0.231035 89.4466C-0.535118 91.6463 0.670631 94.0445 2.86652 94.7834C5.05822 95.5202 7.40483 94.3147 8.17517 92.1171C8.49893 91.184 8.84782 90.2572 9.22182 89.3368C9.9817 87.4832 11.1686 84.7895 12.8537 81.5004C17.4423 72.6116 23.0169 64.2771 29.4705 56.6571C37.8979 46.6704 47.7725 38.0244 58.7601 31.0115" fill="white" fill-opacity="0.5"/>
</svg>
