<svg width="124" height="128" viewBox="0 0 124 128" fill="none" xmlns="http://www.w3.org/2000/svg">
<path d="M30.6798 0C33.5743 0.706408 37.7834 2.01957 41.3536 3.88382C43.9767 5.25352 46.2796 6.90332 47.6056 8.50659C48.9314 10.1107 49.3306 11.3505 48.8647 12.9572L47.8508 16.4561L51.482 16.2391C52.3511 16.1868 52.8916 16.2057 53.5816 16.1643C54.2716 16.1229 55.1227 15.9627 55.9395 15.6303C57.0401 15.1826 58.5289 14.3026 60.5256 13.0862C60.646 14.6065 60.6848 16.1321 60.6416 17.6565C60.5333 21.3441 60.0657 25.6357 59.2674 29.4119C58.8887 31.2022 58.41 32.8765 57.8974 34.303C57.0443 32.9596 56.1114 31.6756 55.0919 30.486C50.2387 24.8273 43.5533 18.6119 35.1718 18.0091C31.0596 17.713 26.8085 19.5293 23.039 21.5526C21.8994 19.3725 20.1146 17.5657 18.3013 15.9361C16.4757 14.2949 14.5532 12.7901 12.8984 11.3762C15.6218 9.45741 17.6912 8.49974 19.4617 8.27674C21.7244 7.99177 24.0315 8.69076 27.683 10.7974L32.0196 13.2993L30.6795 0H30.6798ZM34.3281 23.1267C34.4871 23.1217 34.6462 23.1246 34.8049 23.1353C40.7401 23.5619 46.6998 28.5884 51.1989 33.8342C55.1455 38.4361 57.8592 45.5781 59.3674 51.4104C57.4099 51.7322 55.316 52.0415 53.2192 52.1043C50.0972 52.1985 47.3858 51.6494 45.9962 50.4396L43.989 48.6939L42.3176 50.764C40.9046 52.5137 39.2378 54.7863 38.2348 57.4672C37.7273 58.8234 37.4137 60.359 37.4655 61.9235C33.9053 61.1697 30.6428 59.8785 29.2303 58.2515L27.7317 56.526L25.846 57.8167C22.9931 59.7691 20.193 61.9803 18.2523 65.0223C17.9577 63.951 17.7006 62.8335 17.5634 61.6673C17.1349 58.0302 17.6147 54.2635 19.4554 51.5326C22.3727 48.3184 25.761 45.2352 26.5633 40.9594C26.8673 39.339 26.3666 38.0983 25.7707 36.8791C25.1743 35.6599 24.3531 34.4615 23.39 33.2834C22.3057 31.9574 21.0441 30.685 19.6984 29.5572C20.8431 28.7983 22.0905 27.9725 23.6549 27.0831C27.2958 25.0112 31.8074 23.2021 34.3279 23.1256L34.3281 23.1267ZM121.156 27.6304C122.967 27.6199 124 27.7635 124 28.0804C123.196 31.7515 121.72 35.6556 119.6 39.3533C112.186 38.2916 104.486 37.7243 96.6051 37.7862C88.9783 40.259 81.015 42.3605 73.5593 45.0211C80.8232 43.7305 88.0251 43.0675 95.0888 42.9367C96.2121 42.9162 97.3355 42.9092 98.4589 42.9158C106.585 42.9615 114.499 43.7073 122.106 44.9631C120.741 54.2372 116.376 67.5373 107.737 79.3629C98.3423 92.2222 84.0843 103.354 62.9807 106.333C46.3913 108.675 32.3386 104.927 25.2116 97.3832C21.6477 93.6113 19.6818 88.9463 19.7289 83.1728C19.7736 77.7597 21.6896 71.3158 26.0946 64.0118C26.4177 63.7594 26.7504 63.5076 27.0982 63.254C30.8515 66.2145 36.1266 67.1807 40.7538 67.629L45.9976 68.1372L43.1636 63.6886C42.3156 62.358 42.3766 61.0432 43.0401 59.2703C43.4638 58.139 44.1851 56.9723 44.9646 55.8462C47.5677 57.1077 50.5626 57.3267 53.3741 57.2416C57.074 57.1297 60.6576 56.4098 62.971 56.0246L65.6134 55.5855L65.0615 52.9606C64.2363 49.0357 62.8561 44.2053 60.7306 39.5685C74.0123 32.9328 110.657 27.6918 121.156 27.6299V27.6304ZM34.5488 27.6556C32.025 27.6556 29.934 29.7639 29.934 32.2849C29.934 34.8059 32.025 36.9142 34.5488 36.9142C37.0721 36.9142 39.164 34.8059 39.164 32.2849C39.164 29.7639 37.0724 27.6556 34.5488 27.6556ZM13.4772 31.5017L13.9639 31.7689C15.6626 32.7041 17.8711 34.6471 19.419 36.5402C20.193 37.487 20.8123 38.4281 21.161 39.1408C21.4133 39.6568 21.4552 40.0414 21.4832 40.0973C21.114 41.7534 18.4935 44.9268 15.5055 48.2413L15.3951 48.3632L15.3022 48.4983C14.7819 49.2512 14.3284 50.0482 13.9468 50.8802C10.6765 51.041 7.11371 50.6652 2.92652 49.816L14.716 40.9825C14.716 40.9825 4.04217 41.1961 0.139244 40.5157C-1.19965 40.2821 7.40794 34.1688 13.4769 31.5014L13.4772 31.5017ZM89.2229 56.8832L84.2288 58.0682C84.693 60.0287 86.0348 61.3119 87.4663 62.3535C88.8976 63.3957 90.5666 64.24 92.3133 65.0244C93.8443 65.7119 95.4276 66.3372 96.9307 66.9369C92.0133 68.9813 85.6008 70.51 80.41 69.1514L78.0906 68.5441L77.3288 70.8212C76.7295 72.6115 77.1007 74.5103 77.8905 75.9885C78.6791 77.4664 79.8335 78.6834 81.1556 79.7984C82.4124 80.8586 83.8437 81.8185 85.3285 82.6851C84.8974 82.7993 84.5445 82.9078 84.0703 83.0235C79.4646 84.1436 72.891 85.3049 66.3334 85.7869C59.7766 86.2688 53.1936 86.0221 48.7863 84.6296C46.5829 83.9329 44.9809 82.9735 44.052 81.9019C43.1225 80.8303 42.6834 79.6705 42.8659 77.7217L37.7561 77.2426C37.4653 80.3515 38.3833 83.2025 40.1767 85.2718C41.9701 87.3404 44.4574 88.651 47.2418 89.531C52.8118 91.2908 59.8062 91.4198 66.7094 90.9122C73.6126 90.4045 80.3824 89.2093 85.2818 88.0177C87.7309 87.4218 89.6856 86.8436 91.0935 86.2745C91.7978 85.9899 92.313 85.8228 93.0372 85.1881C93.3993 84.8706 94.1314 84.2758 94.0607 82.8799C94.0259 82.182 93.6576 81.4959 93.2921 81.1187C92.9271 80.7418 92.5969 80.5776 92.3318 80.4634C89.5491 79.2653 86.4693 77.5595 84.4621 75.8669C84.0629 75.5279 83.6867 75.1627 83.3359 74.7739C91.5261 75.3524 99.6196 71.872 104.37 68.9347L108.26 66.5291L104.183 64.4567C101.379 63.0319 97.5836 61.7576 94.4145 60.3336C92.8293 59.6221 91.4186 58.8754 90.4837 58.195C89.5494 57.5154 89.2377 56.9443 89.2235 56.8824L89.2229 56.8832ZM97.2466 97.4957C100.081 100.402 104.278 103.236 108.702 105.505C110.51 103.239 112.453 101.091 114.532 99.1541L118.027 102.918C116.463 104.374 114.962 105.995 113.533 107.719C115.165 108.378 116.773 108.94 118.298 109.373L116.897 114.317C115 113.777 113.019 113.103 111.022 112.308C111.024 117.131 111.533 122.513 112.885 126.247L108.061 128C107.021 125.13 106.42 121.874 106.114 118.606C104.753 121.016 103.544 123.424 102.52 125.725L97.8322 123.634C99.8166 119.172 102.405 114.365 105.523 109.808C100.738 107.343 96.2361 104.202 92.987 100.532C94.4443 99.5736 95.8652 98.561 97.2466 97.496V97.4957ZM11.3032 107.526C15.6249 107.58 20.4733 109.769 25.3336 112.806C27.3648 114.076 29.3129 115.474 31.1659 116.992C33.0791 115.519 35.0806 113.939 37.1134 112.358C37.8597 111.778 38.6086 111.201 39.3601 110.627C41.6074 111.172 43.9613 111.576 46.4039 111.835C44.393 113.252 42.3219 114.814 40.2611 116.417C38.4979 117.788 36.7451 119.179 35.0235 120.516C36.4371 121.96 37.7179 123.465 38.7993 125.009L34.5984 127.961C33.5985 126.534 32.3221 125.071 30.8703 123.645C29.4191 124.696 28.0032 125.667 26.6449 126.49L23.9885 122.093C24.4374 121.82 24.881 121.538 25.3191 121.248C19.7859 120.582 14.1842 121.148 10.307 122.012L9.19218 116.995C12.2087 116.322 16.0207 115.789 20.1451 115.774L20.1993 115.775C16.3175 113.714 12.6133 112.57 10.7307 112.675L10.4455 107.544C10.731 107.528 11.017 107.522 11.3029 107.526L11.3032 107.526Z" fill="white" fill-opacity="0.5"/>
</svg>
