<svg width="61" height="61" viewBox="0 0 61 61" fill="none" xmlns="http://www.w3.org/2000/svg">
<path d="M12.9852 5.95648L12.9867 5.9642L12.9997 5.96973L13.0364 5.99479L13.1702 6.08947C13.2839 6.1693 13.4432 6.28584 13.648 6.43908C14.0562 6.73785 14.6361 7.18412 15.3448 7.76199C16.7629 8.9216 18.6945 10.62 20.7863 12.8078C23.4655 15.6084 26.4391 19.2489 28.891 23.5995C29.5931 18.6539 31.032 14.1809 32.5067 10.5967C33.4505 8.30785 34.5288 6.07678 35.7358 3.91512C36.1848 3.11828 36.6569 2.33467 37.1515 1.56529L37.2416 1.42836L37.2667 1.39165L37.2729 1.38247C37.4923 1.06165 37.801 0.809085 38.1615 0.663842C38.5219 0.518599 38.9174 0.483324 39.2979 0.562462C39.6784 0.6416 40.0269 0.83161 40.2996 1.10854C40.5722 1.38547 40.7568 1.73691 40.83 2.11858L44.5484 21.8289C45.1373 19.6311 45.8855 17.7909 46.6742 16.2709C47.7776 14.1519 48.9542 12.6747 49.8832 11.7079C50.3569 11.211 50.8731 10.7565 51.426 10.3495L51.5424 10.2676L51.5813 10.2402L51.5991 10.2289L51.6068 10.2274L51.61 10.2228C51.8807 10.0502 52.1896 9.9466 52.5097 9.92103C52.8297 9.89547 53.1511 9.94875 53.4458 10.0762C53.7405 10.2037 53.9995 10.4014 54.2 10.6521C54.4005 10.9028 54.5366 11.1989 54.5962 11.5144L60.058 40.4661C60.6375 43.5374 59.973 46.7132 58.2108 49.2948C56.4486 51.8763 53.733 53.6522 50.6614 54.2316L19.7776 60.058C16.706 60.6375 13.5301 59.9731 10.9484 58.2111C8.36673 56.449 6.59085 53.7336 6.01142 50.6622L0.549532 21.7105C0.490087 21.395 0.508891 21.0698 0.6043 20.7632C0.699708 20.4567 0.868811 20.1782 1.09681 19.9521C1.3248 19.7261 1.60474 19.5593 1.9121 19.4665C2.21947 19.3737 2.5449 19.3577 2.85991 19.4198L2.87222 19.4215L2.89298 19.4255L2.93908 19.4368C3.13962 19.4749 3.33688 19.5286 3.52907 19.5974C3.89457 19.7123 4.40108 19.8966 5.00979 20.1775C6.23033 20.7348 7.86035 21.6825 9.66072 23.2577C10.9521 24.3813 12.3155 25.823 13.6654 27.6591L9.9462 7.94496C9.8734 7.56285 9.91571 7.16772 10.0678 6.80968C10.2198 6.45163 10.4748 6.14679 10.8003 5.9338C11.1258 5.72081 11.5072 5.60927 11.8962 5.6133C12.2852 5.61734 12.6642 5.73678 12.9852 5.95648Z" fill="white" fill-opacity="0.5"/>
</svg>
