<svg width="54" height="75" viewBox="0 0 54 75" fill="none" xmlns="http://www.w3.org/2000/svg">
<path d="M36.5511 1.1416C36.3869 0.868785 36.1661 0.63526 35.9038 0.457067C35.6415 0.278874 35.3439 0.160237 35.0314 0.109308C34.719 0.0583782 34.3991 0.076363 34.0938 0.162027C33.7884 0.24769 33.5049 0.399002 33.2626 0.605566C26.4519 6.4209 4.02868 26.7087 1.21254 43.9851C-1.41175 60.0847 6.973 71.8556 22.912 74.4537C38.8511 77.0519 50.5399 68.553 53.1642 52.4535C55.9803 35.177 41.1607 8.81849 36.5511 1.1416ZM27.3425 65.4507C26.9956 65.3949 26.6674 65.2559 26.3854 65.0452C26.1034 64.8345 25.8759 64.5583 25.722 64.24C25.5681 63.9216 25.4923 63.5704 25.501 63.2158C25.5097 62.8612 25.6026 62.5136 25.772 62.2023C25.9899 61.7956 26.329 61.4682 26.7412 61.2668C27.1534 61.0653 27.6176 61.0001 28.0678 61.0803C30.9341 61.5411 33.8681 60.8364 36.2276 59.1204C38.5872 57.4045 40.1803 54.817 40.6582 51.9242C40.7259 51.4674 40.9345 51.0433 41.2545 50.7123C41.5744 50.3813 41.9893 50.1603 42.4401 50.0807C42.786 50.0173 43.1417 50.0386 43.4772 50.1429C43.8127 50.2472 44.1183 50.4313 44.3681 50.6799C44.618 50.9285 44.8049 51.2342 44.913 51.5713C45.0211 51.9085 45.0474 52.2671 44.9896 52.6172C44.3239 56.6739 42.092 60.3034 38.7836 62.7093C35.4752 65.1153 31.3606 66.1012 27.3425 65.4507Z" fill="white" fill-opacity="0.5"/>
</svg>
